<svg width="587" height="131" viewBox="0 0 587 131" fill="none" xmlns="http://www.w3.org/2000/svg">
<path d="M8.5 83L81.6942 49.1824C85.2338 47.5471 87.5 44.0036 87.5 40.1045V20.7076C87.5 13.39 79.8983 8.5505 73.2682 11.6472L9.76818 41.3059C6.24904 42.9495 4 46.4823 4 50.3663V78.7361C4 82.5673 6.18886 86.0617 9.63594 87.7336L73.1359 118.533C79.7772 121.754 87.5 116.917 87.5 109.536V91.2509C87.5 87.4265 85.3188 83.937 81.8809 82.2616L8.5 46.5" stroke="#FF00C7" stroke-width="7"/>
<path d="M161.832 103.44C156.712 103.44 152.088 102.544 147.96 100.752C143.864 98.928 140.488 96.336 137.832 92.976C135.208 89.584 133.544 85.552 132.84 80.88L146.472 78.864C147.432 82.832 149.416 85.888 152.424 88.032C155.432 90.176 158.856 91.248 162.696 91.248C164.84 91.248 166.92 90.912 168.936 90.24C170.952 89.568 172.6 88.576 173.88 87.264C175.192 85.952 175.848 84.336 175.848 82.416C175.848 81.712 175.736 81.04 175.512 80.4C175.32 79.728 174.984 79.104 174.504 78.528C174.024 77.952 173.336 77.408 172.44 76.896C171.576 76.384 170.472 75.92 169.128 75.504L151.176 70.224C149.832 69.84 148.264 69.296 146.472 68.592C144.712 67.888 143 66.88 141.336 65.568C139.672 64.256 138.28 62.528 137.16 60.384C136.072 58.208 135.528 55.472 135.528 52.176C135.528 47.536 136.696 43.68 139.032 40.608C141.368 37.536 144.488 35.248 148.392 33.744C152.296 32.24 156.616 31.504 161.352 31.536C166.12 31.6 170.376 32.416 174.12 33.984C177.864 35.552 181 37.84 183.528 40.848C186.056 43.824 187.88 47.472 189 51.792L174.888 54.192C174.376 51.952 173.432 50.064 172.056 48.528C170.68 46.992 169.032 45.824 167.112 45.024C165.224 44.224 163.24 43.792 161.16 43.728C159.112 43.664 157.176 43.952 155.352 44.592C153.56 45.2 152.088 46.096 150.936 47.28C149.816 48.464 149.256 49.872 149.256 51.504C149.256 53.008 149.72 54.24 150.648 55.2C151.576 56.128 152.744 56.88 154.152 57.456C155.56 58.032 157 58.512 158.472 58.896L170.472 62.16C172.264 62.64 174.248 63.28 176.424 64.08C178.6 64.848 180.68 65.936 182.664 67.344C184.68 68.72 186.328 70.544 187.608 72.816C188.92 75.088 189.576 77.968 189.576 81.456C189.576 85.168 188.792 88.416 187.224 91.2C185.688 93.952 183.608 96.24 180.984 98.064C178.36 99.856 175.384 101.2 172.056 102.096C168.76 102.992 165.352 103.44 161.832 103.44ZM219.422 103.536C215.358 103.536 212.046 102.848 209.486 101.472C206.926 100.096 204.926 98.352 203.486 96.24C202.078 94.128 201.07 91.936 200.462 89.664C199.854 87.36 199.486 85.264 199.358 83.376C199.23 81.488 199.166 80.112 199.166 79.248V50.16H212.414V74.64C212.414 75.824 212.478 77.344 212.606 79.2C212.734 81.024 213.134 82.864 213.806 84.72C214.478 86.576 215.566 88.128 217.07 89.376C218.606 90.624 220.766 91.248 223.55 91.248C224.67 91.248 225.87 91.072 227.15 90.72C228.43 90.368 229.63 89.696 230.75 88.704C231.87 87.68 232.782 86.192 233.486 84.24C234.222 82.256 234.59 79.664 234.59 76.464L242.078 80.016C242.078 84.112 241.246 87.952 239.582 91.536C237.918 95.12 235.406 98.016 232.046 100.224C228.718 102.432 224.51 103.536 219.422 103.536ZM236.222 102V84.816H234.59V50.16H247.742V102H236.222ZM286.598 103.44C281.446 103.44 277.142 102.24 273.686 99.84C270.23 97.44 267.622 94.176 265.862 90.048C264.134 85.92 263.27 81.264 263.27 76.08C263.27 70.896 264.134 66.24 265.862 62.112C267.59 57.984 270.134 54.72 273.494 52.32C276.854 49.92 280.998 48.72 285.926 48.72C290.886 48.72 295.206 49.904 298.886 52.272C302.566 54.64 305.414 57.888 307.43 62.016C309.478 66.112 310.502 70.8 310.502 76.08C310.502 81.264 309.494 85.92 307.478 90.048C305.494 94.176 302.71 97.44 299.126 99.84C295.542 102.24 291.366 103.44 286.598 103.44ZM261.062 125.04V50.16H272.582V85.68H274.214V125.04H261.062ZM284.486 91.824C287.302 91.824 289.606 91.12 291.398 89.712C293.19 88.304 294.518 86.416 295.382 84.048C296.246 81.648 296.678 78.992 296.678 76.08C296.678 73.2 296.23 70.576 295.334 68.208C294.438 65.808 293.046 63.904 291.158 62.496C289.302 61.056 286.918 60.336 284.006 60.336C281.286 60.336 279.078 60.992 277.382 62.304C275.718 63.616 274.502 65.456 273.734 67.824C272.966 70.192 272.582 72.944 272.582 76.08C272.582 79.216 272.966 81.968 273.734 84.336C274.502 86.704 275.75 88.544 277.478 89.856C279.238 91.168 281.574 91.824 284.486 91.824ZM340.36 103.536C336.296 103.536 332.984 102.848 330.424 101.472C327.864 100.096 325.864 98.352 324.424 96.24C323.016 94.128 322.008 91.936 321.4 89.664C320.792 87.36 320.424 85.264 320.296 83.376C320.168 81.488 320.104 80.112 320.104 79.248V50.16H333.352V74.64C333.352 75.824 333.416 77.344 333.544 79.2C333.672 81.024 334.072 82.864 334.744 84.72C335.416 86.576 336.504 88.128 338.008 89.376C339.544 90.624 341.704 91.248 344.488 91.248C345.608 91.248 346.808 91.072 348.088 90.72C349.368 90.368 350.568 89.696 351.688 88.704C352.808 87.68 353.72 86.192 354.424 84.24C355.16 82.256 355.528 79.664 355.528 76.464L363.016 80.016C363.016 84.112 362.184 87.952 360.52 91.536C358.856 95.12 356.344 98.016 352.984 100.224C349.656 102.432 345.448 103.536 340.36 103.536ZM357.16 102V84.816H355.528V50.16H368.68V102H357.16ZM406.191 103.44C400.879 103.44 396.191 102.304 392.127 100.032C388.095 97.728 384.927 94.576 382.623 90.576C380.351 86.544 379.215 81.936 379.215 76.752C379.215 71.088 380.335 66.16 382.575 61.968C384.815 57.776 387.903 54.528 391.839 52.224C395.775 49.888 400.303 48.72 405.423 48.72C410.863 48.72 415.487 50 419.295 52.56C423.103 55.12 425.919 58.72 427.743 63.36C429.567 68 430.207 73.456 429.663 79.728H416.751V74.928C416.751 69.648 415.903 65.856 414.207 63.552C412.543 61.216 409.807 60.048 405.999 60.048C401.551 60.048 398.271 61.408 396.159 64.128C394.079 66.816 393.039 70.8 393.039 76.08C393.039 80.912 394.079 84.656 396.159 87.312C398.271 89.936 401.359 91.248 405.423 91.248C407.983 91.248 410.175 90.688 411.999 89.568C413.823 88.448 415.215 86.832 416.175 84.72L429.231 88.464C427.279 93.2 424.191 96.88 419.967 99.504C415.775 102.128 411.183 103.44 406.191 103.44ZM389.007 79.728V70.032H423.375V79.728H389.007ZM460.757 103.44C454.229 103.44 448.949 101.968 444.917 99.024C440.917 96.048 438.485 91.856 437.621 86.448L450.965 84.432C451.509 86.864 452.709 88.768 454.565 90.144C456.453 91.52 458.837 92.208 461.717 92.208C464.085 92.208 465.909 91.76 467.189 90.864C468.469 89.936 469.109 88.656 469.109 87.024C469.109 86 468.853 85.184 468.341 84.576C467.829 83.936 466.677 83.312 464.885 82.704C463.125 82.096 460.373 81.296 456.629 80.304C452.405 79.216 449.029 78 446.501 76.656C443.973 75.312 442.149 73.712 441.029 71.856C439.909 69.968 439.349 67.696 439.349 65.04C439.349 61.712 440.197 58.832 441.893 56.4C443.589 53.936 445.973 52.048 449.045 50.736C452.149 49.392 455.797 48.72 459.989 48.72C464.053 48.72 467.653 49.344 470.789 50.592C473.925 51.84 476.453 53.616 478.373 55.92C480.325 58.224 481.525 60.944 481.973 64.08L468.629 66.48C468.405 64.56 467.573 63.04 466.133 61.92C464.693 60.8 462.741 60.144 460.277 59.952C457.877 59.792 455.941 60.112 454.469 60.912C453.029 61.712 452.309 62.864 452.309 64.368C452.309 65.264 452.613 66.016 453.221 66.624C453.861 67.232 455.157 67.856 457.109 68.496C459.093 69.136 462.101 69.968 466.133 70.992C470.069 72.016 473.221 73.216 475.589 74.592C477.989 75.936 479.733 77.568 480.821 79.488C481.909 81.376 482.453 83.664 482.453 86.352C482.453 91.664 480.533 95.84 476.693 98.88C472.853 101.92 467.541 103.44 460.757 103.44ZM524.105 102C520.521 102.672 517.001 102.96 513.545 102.864C510.121 102.8 507.049 102.208 504.329 101.088C501.641 99.936 499.593 98.096 498.185 95.568C496.905 93.2 496.233 90.8 496.169 88.368C496.105 85.904 496.073 83.12 496.073 80.016V35.76H509.129V79.248C509.129 81.264 509.145 83.088 509.177 84.72C509.241 86.32 509.577 87.6 510.185 88.56C511.337 90.384 513.177 91.376 515.705 91.536C518.233 91.696 521.033 91.568 524.105 91.152V102ZM487.241 60.24V50.16H524.105V60.24H487.241ZM556.173 103.44C550.957 103.44 546.381 102.272 542.445 99.936C538.509 97.6 535.437 94.384 533.229 90.288C531.053 86.16 529.965 81.424 529.965 76.08C529.965 70.672 531.085 65.92 533.325 61.824C535.565 57.696 538.653 54.48 542.589 52.176C546.525 49.872 551.053 48.72 556.173 48.72C561.389 48.72 565.965 49.888 569.901 52.224C573.869 54.56 576.957 57.792 579.165 61.92C581.373 66.016 582.477 70.736 582.477 76.08C582.477 81.456 581.357 86.208 579.117 90.336C576.909 94.432 573.821 97.648 569.853 99.984C565.917 102.288 561.357 103.44 556.173 103.44ZM556.173 91.248C560.365 91.248 563.485 89.84 565.533 87.024C567.613 84.176 568.653 80.528 568.653 76.08C568.653 71.472 567.597 67.792 565.485 65.04C563.405 62.288 560.301 60.912 556.173 60.912C553.325 60.912 550.989 61.552 549.165 62.832C547.341 64.112 545.981 65.888 545.085 68.16C544.221 70.432 543.789 73.072 543.789 76.08C543.789 80.72 544.829 84.416 546.909 87.168C549.021 89.888 552.109 91.248 556.173 91.248Z" fill="#211F24"/>
</svg>
